<svg xmlns="http://www.w3.org/2000/svg" id="Capa_1" viewBox="0 0 53.55 51.03"><path d="M-.09-.09v18.95h19.86V-.09H-.09ZM14.72,14.04H4.97V4.73h9.75v9.31Z"></path><path d="M33.99,8.89v18.95h19.86V8.89h-19.86ZM48.79,23.02h-9.75v-9.31h9.75v9.31Z"></path><path d="M33.7,32.07v18.95h19.86v-18.95h-19.86ZM48.5,46.21h-9.75v-9.31h9.75v9.31Z"></path><path d="M-.15,32.03v18.95h19.86v-18.95H-.15ZM14.66,46.16H4.9v-9.31h9.75v9.31Z"></path><polygon points="53.89 -.01 26.58 -.01 26.58 0 24.44 0 24.44 15.79 29.4 15.79 29.4 4.95 53.89 4.95 53.89 -.01"></polygon><rect x="17.48" y="38.97" width="18.9" height="5.03" transform="translate(68.42 14.55) rotate(90)"></rect><rect y="22.63" width="29.37" height="5.38"></rect></svg>